<?xml version="1.0" encoding="UTF-8" standalone="no"?>
<!DOCTYPE svg PUBLIC "-//W3C//DTD SVG 1.1//EN"
 "http://www.w3.org/Graphics/SVG/1.1/DTD/svg11.dtd">
<!-- Generated by graphviz version 2.43.0 (0)
 -->
<!-- Title: TestLifecycle Pages: 1 -->
<svg width="1599pt" height="306pt"
 viewBox="0.00 0.00 1599.00 306.00" xmlns="http://www.w3.org/2000/svg" xmlns:xlink="http://www.w3.org/1999/xlink">
<g id="graph0" class="graph" transform="scale(1 1) rotate(0) translate(18 288)">
<title>TestLifecycle</title>
<polygon fill="white" stroke="transparent" points="-18,18 -18,-288 1581,-288 1581,18 -18,18"/>
<!-- Build -->
<g id="node1" class="node">
<title>Build</title>
<path fill="#dbeafe" stroke="#1f2937" stroke-width="1.1" d="M299,-270C299,-270 12,-270 12,-270 6,-270 0,-264 0,-258 0,-258 0,-246 0,-246 0,-240 6,-234 12,-234 12,-234 299,-234 299,-234 305,-234 311,-240 311,-246 311,-246 311,-258 311,-258 311,-264 305,-270 299,-270"/>
<text text-anchor="middle" x="155.5" y="-248.3" font-family="Helvetica,sans-Serif" font-size="14.00">dotnet build WebAppExperimental266.sln</text>
</g>
<!-- Compile -->
<g id="node2" class="node">
<title>Compile</title>
<path fill="#dbeafe" stroke="#1f2937" stroke-width="1.1" d="M250.5,-194C250.5,-194 60.5,-194 60.5,-194 54.5,-194 48.5,-188 48.5,-182 48.5,-182 48.5,-170 48.5,-170 48.5,-164 54.5,-158 60.5,-158 60.5,-158 250.5,-158 250.5,-158 256.5,-158 262.5,-164 262.5,-170 262.5,-170 262.5,-182 262.5,-182 262.5,-188 256.5,-194 250.5,-194"/>
<text text-anchor="middle" x="155.5" y="-172.3" font-family="Helvetica,sans-Serif" font-size="14.00">Compile app + test projects</text>
</g>
<!-- Build&#45;&gt;Compile -->
<g id="edge1" class="edge">
<title>Build&#45;&gt;Compile</title>
<path fill="none" stroke="#475569" stroke-width="1.1" d="M155.5,-233.84C155.5,-224.31 155.5,-212.29 155.5,-201.76"/>
<polygon fill="#475569" stroke="#475569" stroke-width="1.1" points="158.13,-201.57 155.5,-194.07 152.88,-201.57 158.13,-201.57"/>
</g>
<!-- NoRun -->
<g id="node3" class="node">
<title>NoRun</title>
<path fill="#fef3c7" stroke="#1f2937" stroke-width="1.1" d="M256,-115C256,-115 55,-115 55,-115 49,-115 43,-109 43,-103 43,-103 43,-91 43,-91 43,-85 49,-79 55,-79 55,-79 256,-79 256,-79 262,-79 268,-85 268,-91 268,-91 268,-103 268,-103 268,-109 262,-115 256,-115"/>
<text text-anchor="middle" x="155.5" y="-93.3" font-family="Helvetica,sans-Serif" font-size="14.00">No tests execute during build</text>
</g>
<!-- Compile&#45;&gt;NoRun -->
<g id="edge2" class="edge">
<title>Compile&#45;&gt;NoRun</title>
<path fill="none" stroke="#475569" stroke-width="1.1" d="M155.5,-157.91C155.5,-147.54 155.5,-134.14 155.5,-122.64"/>
<polygon fill="#475569" stroke="#475569" stroke-width="1.1" points="158.13,-122.54 155.5,-115.04 152.88,-122.54 158.13,-122.54"/>
</g>
<!-- Test -->
<g id="node4" class="node">
<title>Test</title>
<path fill="#dcfce7" stroke="#1f2937" stroke-width="1.1" d="M1317,-270C1317,-270 758,-270 758,-270 752,-270 746,-264 746,-258 746,-258 746,-246 746,-246 746,-240 752,-234 758,-234 758,-234 1317,-234 1317,-234 1323,-234 1329,-240 1329,-246 1329,-246 1329,-258 1329,-258 1329,-264 1323,-270 1317,-270"/>
<text text-anchor="middle" x="1037.5" y="-248.3" font-family="Helvetica,sans-Serif" font-size="14.00">dotnet test WebAppExperimental266.Tests/WebAppExperimental266.Tests.csproj</text>
</g>
<!-- XUnit -->
<g id="node5" class="node">
<title>XUnit</title>
<path fill="#dcfce7" stroke="#1f2937" stroke-width="1.1" d="M1149,-194C1149,-194 926,-194 926,-194 920,-194 914,-188 914,-182 914,-182 914,-170 914,-170 914,-164 920,-158 926,-158 926,-158 1149,-158 1149,-158 1155,-158 1161,-164 1161,-170 1161,-170 1161,-182 1161,-182 1161,-188 1155,-194 1149,-194"/>
<text text-anchor="middle" x="1037.5" y="-172.3" font-family="Helvetica,sans-Serif" font-size="14.00">xUnit test discovery + execution</text>
</g>
<!-- Test&#45;&gt;XUnit -->
<g id="edge3" class="edge">
<title>Test&#45;&gt;XUnit</title>
<path fill="none" stroke="#475569" stroke-width="1.1" d="M1037.5,-233.84C1037.5,-224.31 1037.5,-212.29 1037.5,-201.76"/>
<polygon fill="#475569" stroke="#475569" stroke-width="1.1" points="1040.13,-201.57 1037.5,-194.07 1034.88,-201.57 1040.13,-201.57"/>
</g>
<!-- Unit -->
<g id="node6" class="node">
<title>Unit</title>
<path fill="#dcfce7" stroke="#1f2937" stroke-width="1.1" d="M790.5,-118C790.5,-118 312.5,-118 312.5,-118 306.5,-118 300.5,-112 300.5,-106 300.5,-106 300.5,-88 300.5,-88 300.5,-82 306.5,-76 312.5,-76 312.5,-76 790.5,-76 790.5,-76 796.5,-76 802.5,-82 802.5,-88 802.5,-88 802.5,-106 802.5,-106 802.5,-112 796.5,-118 790.5,-118"/>
<text text-anchor="middle" x="551.5" y="-100.8" font-family="Helvetica,sans-Serif" font-size="14.00">Unit tests</text>
<text text-anchor="middle" x="551.5" y="-85.8" font-family="Helvetica,sans-Serif" font-size="14.00">models, services, auth handlers, middleware, cloud service wrappers</text>
</g>
<!-- XUnit&#45;&gt;Unit -->
<g id="edge4" class="edge">
<title>XUnit&#45;&gt;Unit</title>
<path fill="none" stroke="#475569" stroke-width="1.1" d="M929.94,-157.96C858.04,-146.57 762.89,-131.49 685.99,-119.31"/>
<polygon fill="#475569" stroke="#475569" stroke-width="1.1" points="685.95,-116.64 678.13,-118.06 685.13,-121.83 685.95,-116.64"/>
</g>
<!-- Integration -->
<g id="node7" class="node">
<title>Integration</title>
<path fill="#dcfce7" stroke="#1f2937" stroke-width="1.1" d="M1228,-118C1228,-118 847,-118 847,-118 841,-118 835,-112 835,-106 835,-106 835,-88 835,-88 835,-82 841,-76 847,-76 847,-76 1228,-76 1228,-76 1234,-76 1240,-82 1240,-88 1240,-88 1240,-106 1240,-106 1240,-112 1234,-118 1228,-118"/>
<text text-anchor="middle" x="1037.5" y="-100.8" font-family="Helvetica,sans-Serif" font-size="14.00">Integration tests</text>
<text text-anchor="middle" x="1037.5" y="-85.8" font-family="Helvetica,sans-Serif" font-size="14.00">WebApplicationFactory + HTTP requests + temp SQLite</text>
</g>
<!-- XUnit&#45;&gt;Integration -->
<g id="edge5" class="edge">
<title>XUnit&#45;&gt;Integration</title>
<path fill="none" stroke="#475569" stroke-width="1.1" d="M1037.5,-157.91C1037.5,-148.43 1037.5,-136.4 1037.5,-125.62"/>
<polygon fill="#475569" stroke="#475569" stroke-width="1.1" points="1040.13,-125.54 1037.5,-118.04 1034.88,-125.54 1040.13,-125.54"/>
</g>
<!-- Security -->
<g id="node8" class="node">
<title>Security</title>
<path fill="#ede9fe" stroke="#1f2937" stroke-width="1.1" d="M1551,-118C1551,-118 1284,-118 1284,-118 1278,-118 1272,-112 1272,-106 1272,-106 1272,-88 1272,-88 1272,-82 1278,-76 1284,-76 1284,-76 1551,-76 1551,-76 1557,-76 1563,-82 1563,-88 1563,-88 1563,-106 1563,-106 1563,-112 1557,-118 1551,-118"/>
<text text-anchor="middle" x="1417.5" y="-100.8" font-family="Helvetica,sans-Serif" font-size="14.00">Security&#45;focused tests</text>
<text text-anchor="middle" x="1417.5" y="-85.8" font-family="Helvetica,sans-Serif" font-size="14.00">nonce, OCSP, mTLS, YubiKey, cert auth</text>
</g>
<!-- XUnit&#45;&gt;Security -->
<g id="edge6" class="edge">
<title>XUnit&#45;&gt;Security</title>
<path fill="none" stroke="#475569" stroke-width="1.1" d="M1121.83,-157.91C1177.61,-146.61 1251.2,-131.7 1311.01,-119.58"/>
<polygon fill="#475569" stroke="#475569" stroke-width="1.1" points="1311.78,-122.1 1318.61,-118.04 1310.73,-116.96 1311.78,-122.1"/>
</g>
<!-- Result -->
<g id="node9" class="node">
<title>Result</title>
<path fill="#bbf7d0" stroke="#1f2937" stroke-width="1.1" d="M1147.5,-36C1147.5,-36 927.5,-36 927.5,-36 921.5,-36 915.5,-30 915.5,-24 915.5,-24 915.5,-12 915.5,-12 915.5,-6 921.5,0 927.5,0 927.5,0 1147.5,0 1147.5,0 1153.5,0 1159.5,-6 1159.5,-12 1159.5,-12 1159.5,-24 1159.5,-24 1159.5,-30 1153.5,-36 1147.5,-36"/>
<text text-anchor="middle" x="1037.5" y="-14.3" font-family="Helvetica,sans-Serif" font-size="14.00">362 passing tests in current run</text>
</g>
<!-- Unit&#45;&gt;Result -->
<g id="edge7" class="edge">
<title>Unit&#45;&gt;Result</title>
<path fill="none" stroke="#475569" stroke-width="1.1" d="M677.92,-75.97C753.51,-63.99 848.83,-48.89 922.33,-37.25"/>
<polygon fill="#475569" stroke="#475569" stroke-width="1.1" points="922.83,-39.83 929.82,-36.06 922.01,-34.64 922.83,-39.83"/>
</g>
<!-- Integration&#45;&gt;Result -->
<g id="edge8" class="edge">
<title>Integration&#45;&gt;Result</title>
<path fill="none" stroke="#475569" stroke-width="1.1" d="M1037.5,-75.77C1037.5,-65.97 1037.5,-54.11 1037.5,-43.78"/>
<polygon fill="#475569" stroke="#475569" stroke-width="1.1" points="1040.13,-43.73 1037.5,-36.23 1034.88,-43.73 1040.13,-43.73"/>
</g>
<!-- Security&#45;&gt;Result -->
<g id="edge9" class="edge">
<title>Security&#45;&gt;Result</title>
<path fill="none" stroke="#475569" stroke-width="1.1" d="M1318.65,-75.97C1260.14,-64.11 1186.52,-49.2 1129.3,-37.6"/>
<polygon fill="#475569" stroke="#475569" stroke-width="1.1" points="1129.56,-34.98 1121.69,-36.06 1128.52,-40.12 1129.56,-34.98"/>
</g>
</g>
</svg>
